<svg xmlns="http://www.w3.org/2000/svg" xmlns:xlink="http://www.w3.org/1999/xlink" width="58.967" height="35.54" viewBox="0 0 58.967 35.54"><defs>
<style>.a{fill:none;stroke:#ffc963;stroke-width:2px;}.b{fill:#444053;}.c,.f{opacity:0.1;}.d{fill:url(#a);}.e{fill:url(#b);}.f{fill:#6c63ff;}.g{fill:#ffd037;}</style>
<linearGradient id="a" x1="0.5" y1="1" x2="0.5" gradientUnits="objectBoundingBox"><stop offset="0" stop-color="gray" stop-opacity="0.251"/><stop offset="0.54" stop-color="gray" stop-opacity="0.122"/><stop offset="1" stop-color="gray" stop-opacity="0.102"/></linearGradient><linearGradient id="b" x1="0.5" y1="1.039" x2="0.5" y2="0.047" xlink:href="#a"/></defs><g transform="translate(0 1)"><path class="a" d="M16.77,0A16.77,16.77,0,1,1,0,16.77,16.77,16.77,0,0,1,16.77,0Z" transform="translate(10.83)"/><ellipse class="b" cx="1.739" cy="2.278" rx="1.739" ry="2.278" transform="translate(21.15 9.176)"/><ellipse class="b" cx="1.739" cy="2.278" rx="1.739" ry="2.278" transform="translate(30.136 9.176)"/><path class="b" d="M.531,0S10.437,4.692,18.76.132c0,0,1.019,0,.323,2.506a3.745,3.745,0,0,1-.761,1.519c-1.6,1.745-7.545,6.9-17.042.325A3.933,3.933,0,0,1,.048,1.794C-.062.934-.014.119.531,0Z" transform="translate(17.902 17.241) rotate(-3)"/><path class="c" d="M855.67,534.71s.533.256.576.561S855.67,534.71,855.67,534.71Z" transform="translate(-812.289 -517.92)"/><path class="c" d="M749.31,635.29c0,.264-.048,1.105.167,1.2S749.31,635.29,749.31,635.29Z" transform="translate(-711.705 -613.032)"/><path class="c" d="M700.54,675.3a1.844,1.844,0,0,1,1.551-.354A3.576,3.576,0,0,0,700.54,675.3Z" transform="translate(-665.592 -650.465)"/><path class="c" d="M718.11,679.791a8.494,8.494,0,0,0,.966.254A2.408,2.408,0,0,0,718.11,679.791Z" transform="translate(-682.207 -655.107)"/><path class="d" d="M255.091,322.585l-.061-.045a.13.13,0,0,1,.025.043Z" transform="translate(-244.3 -317.284)"/><path class="e" d="M252.769,321.19h.036l-.034-.026h.009l-.061-.045a.131.131,0,0,1,.024.042h.014A.121.121,0,0,1,252.769,321.19Z" transform="translate(-242.115 -315.941)"/><path class="c" d="M255.2,325.575l-.059-.045a.129.129,0,0,1,.024.042Z" transform="translate(-244.404 -320.111)"/><path class="c" d="M331.936,455.74s-.179.375-.473.448S331.936,455.74,331.936,455.74Z" transform="translate(-316.514 -443.243)"/><ellipse class="f" cx="1.464" cy="0.247" rx="1.464" ry="0.247" transform="translate(56.039 29.171)"/><ellipse class="f" cx="1.464" cy="0.247" rx="1.464" ry="0.247" transform="translate(8.747 33.595)"/><path class="c" d="M60.994,720.81a.492.492,0,0,0-.061.122c-.523.614-.8,1.188-.3,1.2.469.013,1.033.851,1.165,1.062,0,.016-.01.032-.016.048,0,0-.658-1.095-1.2-1.11S60.4,721.468,60.994,720.81Z" transform="translate(-60.176 -693.904)"/><path class="g" d="M62.47,728.456c0,.138.015.249.035.249s.034-.109.034-.249-.02-.072-.039-.072S62.47,728.316,62.47,728.456Z" transform="translate(-62.207 -701.05)"/><path class="g" d="M57.709,731.365c.121.066.226.105.235.089s-.082-.084-.2-.15-.073-.018-.082,0S57.587,731.3,57.709,731.365Z" transform="translate(-57.635 -703.796)"/></g>
</svg>