<svg xmlns="http://www.w3.org/2000/svg" width="58.485" height="56.94" viewBox="0 0 58.485 56.94">
  <path id="Path_12" data-name="Path 12" d="M330.218,164.457H320.47v-4.79a3.9,3.9,0,0,0-7.8,0v4.79H295.126v-4.79a3.9,3.9,0,1,0-7.8,0v4.79H277.58a2.924,2.924,0,0,0-2.924,2.924v42.4a2.924,2.924,0,0,0,2.924,2.924h52.638a2.924,2.924,0,0,0,2.924-2.924v-42.4A2.924,2.924,0,0,0,330.218,164.457Zm-28.269,13.08v7.8h-9.26v-7.8Zm3.9,0h9.259v7.8h-9.259Zm-17.059,0v7.8H280.5v-7.8Zm0,11.7v5.848H280.5v-5.848Zm3.9,0h9.26v5.848h-9.26Zm9.26,9.747v7.878h-9.26v-7.878Zm3.9,0h9.259v7.878h-9.259Zm0-3.9v-5.848h9.259v5.848Zm13.159-5.848h8.285v5.848h-8.285Zm0-3.9v-7.8h8.285v7.8Zm-38.5,13.647h8.286v7.878H280.5Zm38.5,7.878v-7.878h8.285v7.878Z" transform="translate(-274.656 -155.768)" fill="#fff"/>
</svg>
