<svg id="Group_236" data-name="Group 236" xmlns="http://www.w3.org/2000/svg" width="56.014" height="56.922" viewBox="0 0 56.014 56.922">
  <path id="Path_942" data-name="Path 942" d="M920.3,1719.135c3.869,6.078,13.39,6.453,17.578,2.859a1.087,1.087,0,0,1-.2-.114,2.571,2.571,0,0,1-.359-.409c-.382-.546-.177-.9.05-1.092a1.03,1.03,0,0,1,.483-.222c1.062-.2,3.241-.522,3.624.065.465.714-.259,2.47-.638,3.5-.18.49-.514.834-1.029.655-.285-.1-.472-.48-.762-.8-.871.372-1.228.737-2.237,1.182-4,1.818-7.66,1.281-11.478-.552a9.928,9.928,0,0,1-4.006-3.349C920.958,1720.3,920.641,1719.711,920.3,1719.135Z" transform="translate(-902.01 -1668.961)" fill="#fff"/>
  <path id="Path_943" data-name="Path 943" d="M821.286,1461.87c-7.2-.056-12.694,7.732-11.953,13.2a1.094,1.094,0,0,1,.2-.1,2.582,2.582,0,0,1,.539-.079c.666-.024.849.339.889.635a1.027,1.027,0,0,1-.076.526c-.409,1-1.324,3-2.024,3.007-.852,0-1.932-1.56-2.591-2.437-.313-.418-.42-.884.01-1.219.239-.186.66-.136,1.084-.206.161-.933.048-1.431.224-2.52.649-4.347,3.087-7.126,6.7-9.334a9.928,9.928,0,0,1,4.989-1.542C819.948,1461.788,820.618,1461.844,821.286,1461.87Z" transform="translate(-805.997 -1452.8)" fill="#fff"/>
  <path id="Path_944" data-name="Path 944" d="M1076.927,1469.4c2.561-6.734-2.827-14.592-8.211-15.8a1.067,1.067,0,0,1,.026.225,2.61,2.61,0,0,1-.114.532c-.21.633-.614.678-.905.612a1.03,1.03,0,0,1-.467-.255c-.8-.732-2.355-2.287-2.113-2.945.294-.8,2.135-1.268,3.187-1.579.5-.148.975-.086,1.139.434.091.288-.1.666-.184,1.087.819.476,1.324.544,2.285,1.088,3.848,2.123,5.6,5.376,6.415,9.534a9.933,9.933,0,0,1-.292,5.213C1077.469,1468.178,1077.184,1468.787,1076.927,1469.4Z" transform="translate(-1023.655 -1442.993)" fill="#fff"/>
  <g id="Group_233" data-name="Group 233" transform="translate(18.559 0)">
    <g id="Group_200" data-name="Group 200" transform="translate(3.86 0)">
      <path id="Path_704" data-name="Path 704" d="M958.4,1411.438c0,.1,0,.2-.008.3s-.013.2-.023.3q-.022.222-.062.439-.042.236-.1.466a5.809,5.809,0,0,1-.3.854c-.017.04-.035.079-.053.118-.064.137-.132.271-.206.4-.022.039-.044.078-.068.116a5.888,5.888,0,0,1-1,1.253c-.036.035-.074.07-.112.1q-.1.088-.2.171-.066.055-.134.107-.15.117-.306.224l-.045.031q-.208.139-.428.26-.2.11-.406.2l-.025.011a5.84,5.84,0,0,1-.852.3c-.062.017-.125.033-.187.048a5.841,5.841,0,0,1-.909.142c-.1.007-.2.013-.3.015l-.152,0-.151,0c-.1,0-.2-.008-.3-.015a5.843,5.843,0,0,1-.909-.142c-.063-.015-.125-.031-.187-.048a5.826,5.826,0,0,1-.852-.3l-.025-.011c-.124-.056-.245-.116-.363-.181q-.242-.131-.47-.283l-.045-.031q-.157-.107-.307-.224l-.133-.107q-.1-.083-.2-.171c-.071-.065-.142-.132-.21-.2a5.883,5.883,0,0,1-.9-1.157c-.023-.038-.045-.077-.068-.116q-.111-.2-.206-.4l-.053-.118a5.823,5.823,0,0,1-.3-.854c-.04-.153-.075-.308-.1-.466s-.046-.291-.061-.439c-.01-.1-.018-.2-.023-.3s-.008-.2-.008-.3.02-.2.026-.3c0-.061.03-.122.03-.183h0c0-.038-.011-.076-.007-.113s0-.074,0-.111c.013-.11.025-.22.044-.328.028-.157.061-.313.1-.466a5.808,5.808,0,0,1,.3-.854l.026-.059.027-.058q.1-.205.206-.4c.022-.039.045-.078.068-.117a5.9,5.9,0,0,1,1-1.253q.055-.053.112-.1.1-.088.2-.171c.044-.036.089-.072.133-.107q.15-.117.307-.224l.045-.031a5.843,5.843,0,0,1,.834-.464l.025-.011a5.8,5.8,0,0,1,.852-.3l.187-.048a5.857,5.857,0,0,1,.909-.142c.1-.007.2-.013.3-.015l.151,0,.152,0c.1,0,.2.008.3.015a5.855,5.855,0,0,1,.909.142l.187.048a5.812,5.812,0,0,1,.852.3l.025.011a5.837,5.837,0,0,1,.834.464l.045.031q.157.107.306.224c.045.035.09.071.134.107q.1.084.2.171c.037.034.074.068.11.1a5.887,5.887,0,0,1,1,1.254c.023.038.045.078.068.117.074.131.142.265.206.4q.027.059.053.118a5.819,5.819,0,0,1,.3.854q.061.23.1.466.039.217.062.439c0,.046.009.092.012.139s.007.106.01.159Q958.4,1411.286,958.4,1411.438Z" transform="translate(-946.568 -1405.567)" fill="#fff"/>
      <path id="Path_705" data-name="Path 705" d="M946.214,1438.923l0,0h0Zm-.106-.054.016.008a.573.573,0,0,0,.09.046l-.019-.012C946.169,1438.9,946.136,1438.883,946.108,1438.869Z" transform="translate(-946.108 -1433.54)" fill="#fff"/>
      <path id="Path_706" data-name="Path 706" d="M946.108,1438.869c.028.013.061.028.087.042-.021-.012-.047-.023-.071-.034Z" transform="translate(-946.108 -1433.54)" fill="#fff"/>
      <path id="Path_707" data-name="Path 707" d="M946.775,1439.209h0l0,0Z" transform="translate(-946.665 -1433.824)" fill="#fff"/>
    </g>
    <path id="Path_708" data-name="Path 708" d="M941.508,1484.086v6.08c0,.125.006.149-.113.149H922.211c-.119,0-.225-.024-.225-.149v-6.08c0-.1-.006-.2,0-.292a5.94,5.94,0,0,1,1.555-3.746c.027-.029.052-.058.079-.087a5.663,5.663,0,0,1,1.565-1.154l.106-.051q.241-.113.494-.2l.113-.039q.226-.075.46-.129.286.275.6.518a8.058,8.058,0,0,0,1.714,1.028c.115.051.231.1.347.144a7.821,7.821,0,0,0,4.382.358.979.979,0,0,1,.195-.039h.291a2.339,2.339,0,0,0,.752-.3c.1-.038.2-.126.292-.168a6.865,6.865,0,0,0,1.351-.815h0c.047,0,.094-.042.14-.077a8.112,8.112,0,0,0,.8-.663,5.754,5.754,0,0,1,4.317,5.415C941.537,1483.884,941.508,1483.988,941.508,1484.086Z" transform="translate(-921.983 -1466.723)" fill="#fff"/>
  </g>
  <g id="Group_234" data-name="Group 234" transform="translate(3.04 23.217)">
    <g id="Group_202" data-name="Group 202" transform="translate(3.901 0)">
      <path id="Path_709" data-name="Path 709" d="M861.668,1556.531c0,.1,0,.2-.008.3s-.013.2-.023.3q-.023.222-.062.439-.042.236-.1.466a5.827,5.827,0,0,1-.3.854c-.017.04-.035.078-.053.118q-.1.2-.206.4-.033.059-.067.117a5.9,5.9,0,0,1-1,1.253l-.112.1c-.065.059-.131.115-.2.171-.044.036-.089.072-.134.107q-.149.117-.306.224l-.046.031q-.208.139-.428.26-.2.109-.406.2l-.025.011a5.783,5.783,0,0,1-.852.3q-.093.025-.187.048a5.9,5.9,0,0,1-.909.142q-.149.012-.3.015l-.152,0-.151,0q-.151,0-.3-.015a5.9,5.9,0,0,1-.909-.142c-.063-.015-.125-.031-.187-.048a5.788,5.788,0,0,1-.852-.3l-.025-.011q-.185-.084-.364-.18-.242-.131-.47-.283l-.045-.031q-.157-.107-.307-.224c-.045-.035-.09-.071-.133-.107-.067-.056-.133-.113-.2-.171s-.142-.132-.21-.2a5.891,5.891,0,0,1-.9-1.157c-.023-.039-.045-.078-.068-.117q-.11-.2-.206-.4l-.053-.118a5.777,5.777,0,0,1-.3-.854q-.061-.23-.1-.466-.038-.217-.061-.439-.015-.148-.023-.3c-.005-.1-.008-.2-.008-.3s0-.2,0-.3c0-.061.008-.122.008-.183v0c0-.038.011-.076.014-.113s.01-.074.015-.111c.013-.11.031-.219.05-.328.028-.157.063-.313.1-.466a5.833,5.833,0,0,1,.3-.854l.026-.059.027-.058q.1-.2.206-.4c.022-.039.045-.078.068-.117a5.906,5.906,0,0,1,1-1.253l.111-.1c.065-.058.131-.115.2-.171.044-.037.089-.073.133-.108.1-.078.2-.152.307-.224l.045-.031a5.81,5.81,0,0,1,.833-.464l.025-.011a5.787,5.787,0,0,1,.852-.3c.062-.017.125-.033.187-.048a5.9,5.9,0,0,1,.909-.142c.1-.007.2-.013.3-.015l.151,0,.152,0c.1,0,.2.008.3.015a5.9,5.9,0,0,1,.909.142q.094.023.187.048a5.782,5.782,0,0,1,.852.3l.025.011a5.812,5.812,0,0,1,.834.464l.046.031c.1.071.207.146.306.224.045.035.09.071.134.108.067.056.133.112.2.171l.11.1a5.888,5.888,0,0,1,1,1.254q.035.058.067.117.111.2.206.4c.018.039.036.078.053.118a5.838,5.838,0,0,1,.3.854q.061.229.1.466c.026.144.047.291.062.439q.007.068.012.139c0,.053.008.106.011.159C861.665,1556.329,861.668,1556.43,861.668,1556.531Z" transform="translate(-849.837 -1550.66)" fill="#fff"/>
      <path id="Path_710" data-name="Path 710" d="M849.485,1584.017l0,0h0v0Zm-.106-.054.016.009a.534.534,0,0,0,.09.046l-.019-.011C849.44,1583.991,849.407,1583.977,849.379,1583.963Z" transform="translate(-849.379 -1578.634)" fill="#fff"/>
      <path id="Path_711" data-name="Path 711" d="M849.379,1583.963c.028.014.061.028.087.043-.021-.012-.047-.023-.071-.034Z" transform="translate(-849.379 -1578.634)" fill="#fff"/>
      <path id="Path_712" data-name="Path 712" d="M850.046,1584.3h0l0,0Z" transform="translate(-849.936 -1578.918)" fill="#fff"/>
    </g>
    <path id="Path_713" data-name="Path 713" d="M844.681,1629.16v6.08c0,.124-.111.133-.23.133H825.268c-.119,0-.268-.009-.268-.133v-6.08c0-.1.016-.2.021-.291a5.951,5.951,0,0,1,1.566-3.746c.027-.029.057-.058.085-.087a5.679,5.679,0,0,1,1.567-1.154l.107-.051c.161-.075.326-.143.494-.2l.113-.038q.227-.075.461-.129a7.821,7.821,0,0,0,.6.517,8.052,8.052,0,0,0,1.714,1.028q.172.076.347.144a7.706,7.706,0,0,0,4.382.35,1.028,1.028,0,0,1,.195-.046h.291a2.324,2.324,0,0,0,.751-.289c.1-.039.2-.13.292-.172a6.879,6.879,0,0,0,1.351-.818h0a.264.264,0,0,0,.14-.07,8.121,8.121,0,0,0,.8-.66,5.81,5.81,0,0,1,4.375,5.417C844.653,1628.957,844.681,1629.062,844.681,1629.16Z" transform="translate(-825 -1611.797)" fill="#fff"/>
  </g>
  <g id="Group_235" data-name="Group 235" transform="translate(36.464 24.077)">
    <g id="Group_204" data-name="Group 204" transform="translate(3.841 0)">
      <path id="Path_714" data-name="Path 714" d="M1069.813,1561.906c0,.1,0,.2-.008.3s-.013.2-.023.3q-.022.222-.061.439-.042.236-.1.466a5.848,5.848,0,0,1-.3.854c-.017.04-.035.079-.053.118q-.1.205-.206.4c-.022.039-.044.078-.067.116a5.9,5.9,0,0,1-1,1.253c-.036.035-.074.069-.112.1q-.1.088-.2.171c-.044.037-.089.072-.134.108q-.15.116-.307.224l-.045.031c-.139.093-.281.18-.428.26s-.268.141-.406.2l-.025.012a5.819,5.819,0,0,1-.852.3c-.062.017-.124.033-.187.048a5.869,5.869,0,0,1-.908.142q-.149.011-.3.015c-.05,0-.1,0-.152,0s-.1,0-.151,0q-.151,0-.3-.015a5.879,5.879,0,0,1-.909-.142c-.063-.015-.125-.031-.187-.048a5.8,5.8,0,0,1-.852-.3l-.025-.012q-.186-.084-.364-.181c-.161-.087-.318-.182-.47-.283l-.046-.031q-.157-.107-.307-.224c-.045-.035-.089-.071-.133-.108q-.1-.083-.2-.171c-.071-.065-.141-.132-.21-.2a5.885,5.885,0,0,1-.9-1.157c-.023-.039-.045-.077-.068-.116q-.111-.2-.206-.4c-.018-.039-.036-.078-.053-.118a5.822,5.822,0,0,1-.3-.854q-.061-.229-.1-.466-.039-.217-.061-.439c-.01-.1-.018-.2-.023-.3s-.008-.2-.008-.3-.042-.2-.036-.3c0-.062-.032-.122-.032-.183h0c0-.038.051-.076.055-.114s.031-.074.035-.111c.013-.11.041-.22.06-.328.029-.157.068-.313.109-.466a5.842,5.842,0,0,1,.3-.854c.009-.02.019-.039.027-.059s.019-.039.028-.058q.1-.205.207-.4c.022-.039.045-.078.068-.117a5.885,5.885,0,0,1,1-1.253l.112-.1q.1-.088.2-.171l.133-.108c.1-.078.2-.152.307-.224l.046-.031a5.817,5.817,0,0,1,.833-.464l.025-.011a5.757,5.757,0,0,1,.852-.3l.187-.048a5.864,5.864,0,0,1,.909-.141q.149-.011.3-.015l.151,0,.152,0q.151,0,.3.015a5.854,5.854,0,0,1,.908.141l.187.048a5.777,5.777,0,0,1,.852.3l.025.011a5.817,5.817,0,0,1,.833.464l.045.031c.1.071.207.146.307.224q.068.053.134.108.1.083.2.171c.037.034.074.068.111.1a5.881,5.881,0,0,1,1,1.254c.023.039.045.078.067.117q.111.2.206.4.027.058.053.117a5.858,5.858,0,0,1,.3.854q.061.229.1.466.039.217.061.439.008.069.013.139c0,.053.007.106.01.16Q1069.812,1561.754,1069.813,1561.906Z" transform="translate(-1057.982 -1556.034)" fill="#fff"/>
      <path id="Path_715" data-name="Path 715" d="M1057.991,1589.391l0,0h0Zm-.106-.054.016.008a.556.556,0,0,0,.09.045l-.019-.012C1057.946,1589.365,1057.913,1589.351,1057.885,1589.337Z" transform="translate(-1057.885 -1584.008)" fill="#fff"/>
      <path id="Path_716" data-name="Path 716" d="M1057.885,1589.337c.028.014.061.028.087.042-.021-.012-.047-.023-.071-.034Z" transform="translate(-1057.885 -1584.008)" fill="#fff"/>
      <path id="Path_717" data-name="Path 717" d="M1058.551,1589.677h0l0,0Z" transform="translate(-1058.441 -1584.292)" fill="#fff"/>
    </g>
    <path id="Path_718" data-name="Path 718" d="M1053.421,1634.618v6.08c0,.125-.03.234-.149.234h-19.183c-.119,0-.189-.109-.189-.234v-6.08c0-.1-.023-.2-.019-.292a5.933,5.933,0,0,1,1.546-3.747c.027-.029.048-.058.075-.087a5.655,5.655,0,0,1,1.563-1.153l.1-.052c.161-.075.325-.143.493-.2l.112-.038q.227-.075.461-.129a7.8,7.8,0,0,0,.6.517,8.06,8.06,0,0,0,1.714,1.028c.115.051.231.1.347.144a7.243,7.243,0,0,0,4.382.32c.065-.014.13-.076.2-.076h.291a2.226,2.226,0,0,0,.751-.26c.1-.038.2-.064.292-.107a6.583,6.583,0,0,0,1.351-.753h0c.047,0,.094-.085.14-.12a8.389,8.389,0,0,0,.8-.685,5.758,5.758,0,0,1,4.335,5.4C1053.433,1634.427,1053.421,1634.52,1053.421,1634.618Z" transform="translate(-1033.88 -1617.255)" fill="#fff"/>
  </g>
</svg>
