<svg xmlns="http://www.w3.org/2000/svg" width="61.637" height="44.027" viewBox="0 0 61.637 44.027">
  <g id="Group_313" data-name="Group 313" transform="translate(-20.5 -28.357)">
    <path id="Path_1072" data-name="Path 1072" d="M82.137,31.66V69.081a2.056,2.056,0,0,1-1.341,2.03,2.377,2.377,0,0,1-.86.173,2.045,2.045,0,0,1-1.548-.653L64.527,56.768v5.71a9.925,9.925,0,0,1-9.907,9.906H30.406A9.923,9.923,0,0,1,20.5,62.478V38.263a9.923,9.923,0,0,1,9.906-9.906H54.62a9.925,9.925,0,0,1,9.907,9.906v5.676L78.388,30.111a2.045,2.045,0,0,1,1.548-.653,2.377,2.377,0,0,1,.86.173A2.056,2.056,0,0,1,82.137,31.66Z" transform="translate(0 0)" fill="#fff"/>
  </g>
</svg>
